<svg xmlns="http://www.w3.org/2000/svg"
     width="76.2002mm" height="115.994mm"
     viewBox="0 0 900 1370">
  <path id="Selection"
        fill="none" stroke="black" stroke-width="1"
        d="M 50.00,198.00
           C 47.09,186.86 59.47,171.31 67.00,164.04
             88.26,143.50 123.29,134.92 152.00,132.91
             152.00,132.91 162.00,132.00 162.00,132.00
             183.60,131.75 196.90,130.74 218.00,137.20
             275.11,154.69 312.75,210.66 340.58,260.00
             349.77,276.30 363.39,307.19 370.05,325.00
             370.05,325.00 377.33,345.00 377.33,345.00
             378.70,349.09 379.73,353.65 383.13,356.58
             389.25,361.86 405.08,361.09 413.00,361.00
             430.32,360.79 452.48,352.13 466.00,341.48
             473.53,335.55 482.57,324.79 488.37,317.00
             502.88,297.50 514.56,275.58 520.85,252.00
             520.85,252.00 534.43,185.00 534.43,185.00
             538.54,171.58 547.93,154.42 554.86,142.00
             557.46,137.34 563.74,126.30 562.65,121.02
             561.67,116.30 557.26,114.94 553.00,115.10
             546.55,115.35 532.52,120.20 527.15,116.98
             522.09,113.94 526.71,109.86 523.59,103.00
             519.36,93.72 509.02,89.75 505.68,75.00
             505.02,72.07 505.00,69.96 505.00,67.00
             505.01,58.16 508.18,52.66 518.00,55.85
             524.85,58.07 535.85,67.28 548.00,63.56
             550.94,62.66 554.66,60.90 556.04,57.96
             557.88,53.99 553.69,51.03 551.00,48.88
             545.73,44.71 538.15,40.23 537.23,33.00
             536.22,25.10 542.39,19.96 550.00,21.78
             559.88,24.14 566.80,33.49 574.00,39.89
             576.59,42.20 580.28,45.12 583.91,42.39
             587.17,39.59 585.55,34.42 583.91,31.00
             580.88,23.20 576.79,18.43 574.31,10.00
             573.78,7.69 572.60,3.70 574.31,1.57
             577.12,-2.34 586.86,0.93 590.00,3.06
             597.69,8.27 603.88,16.06 606.56,25.00
             607.56,28.33 609.14,39.77 610.85,41.55
             614.09,44.92 617.98,38.68 622.98,39.42
             628.59,40.25 630.27,48.52 632.00,53.00
             632.00,53.00 639.00,48.60 639.00,48.60
             640.27,47.79 641.58,47.03 643.00,46.52
             656.26,41.78 650.88,61.79 654.74,65.31
             657.31,67.66 660.31,64.52 664.90,68.31
             671.16,73.50 675.47,91.92 675.43,100.00
             675.40,106.21 673.51,110.80 670.32,116.00
             668.77,118.52 665.49,122.89 666.41,125.96
             667.24,128.73 670.64,130.47 673.00,131.74
             679.17,135.07 686.20,138.56 690.77,144.01
             695.37,149.50 694.14,153.54 687.00,154.90
             687.00,154.90 682.00,154.90 682.00,154.90
             682.00,154.90 668.00,154.90 668.00,154.90
             657.08,155.21 660.03,162.52 662.70,170.00
             667.90,184.57 680.31,196.89 677.70,215.00
             676.38,224.22 671.77,231.26 663.00,234.91
             653.76,238.74 646.70,237.18 646.31,244.02
             646.15,246.97 648.76,255.82 649.72,259.00
             654.66,275.41 660.74,284.29 668.69,299.00
             686.33,331.62 707.55,366.74 708.00,405.00
             708.25,426.97 708.39,440.15 703.58,462.00
             685.56,543.69 628.33,606.53 564.00,656.58
             564.00,656.58 532.00,677.69 532.00,677.69
             532.00,677.69 513.00,690.48 513.00,690.48
             513.00,690.48 491.04,700.70 491.04,700.70
             487.35,703.33 486.13,706.58 483.47,710.00
             480.29,714.10 476.30,717.74 472.00,720.64
             466.16,724.58 459.71,727.55 453.00,729.65
             449.19,730.85 444.18,731.27 441.43,734.28
             438.67,737.29 439.01,741.21 439.00,745.00
             439.00,745.00 439.00,771.00 439.00,771.00
             439.18,783.86 448.28,781.87 458.00,785.35
             461.89,786.74 467.49,789.13 467.63,794.01
             467.80,800.12 459.66,802.81 455.00,804.33
             449.35,806.17 441.34,806.14 439.14,813.00
             438.92,814.83 439.00,818.04 439.14,820.00
             439.14,820.00 439.14,944.00 439.14,944.00
             439.00,946.95 438.79,950.30 440.17,952.98
             442.51,957.52 451.38,961.85 456.00,966.09
             459.61,969.41 463.54,975.18 469.00,974.42
             469.00,974.42 491.00,966.28 491.00,966.28
             491.00,966.28 524.00,953.20 524.00,953.20
             524.00,953.20 644.00,905.94 644.00,905.94
             644.00,905.94 675.00,893.68 675.00,893.68
             678.96,892.21 688.78,888.60 691.30,885.61
             694.18,882.21 693.99,877.18 694.00,873.00
             694.00,873.00 694.00,859.00 694.00,859.00
             694.00,859.00 692.61,843.00 692.61,843.00
             691.94,839.75 689.99,837.13 691.84,834.65
             693.36,832.62 697.65,831.57 700.00,830.81
             700.00,830.81 719.00,824.01 719.00,824.01
             721.75,823.12 725.71,821.66 727.22,825.24
             728.23,827.62 727.36,831.11 724.75,831.98
             723.38,832.43 712.72,831.24 707.31,837.22
             705.09,839.69 705.06,841.88 705.00,845.00
             705.00,845.00 705.00,871.00 705.00,871.00
             705.05,873.38 704.96,876.54 707.31,877.94
             710.77,879.98 717.28,875.21 725.00,874.00
             725.00,874.00 725.78,878.00 725.78,878.00
             726.30,887.43 718.35,881.45 710.02,886.84
             704.86,890.18 705.01,893.51 705.00,899.00
             705.00,899.00 705.00,925.00 705.00,925.00
             705.01,929.72 704.87,936.62 711.02,937.58
             715.55,938.30 723.82,932.14 728.00,930.00
             728.91,933.87 728.83,936.63 725.72,939.59
             723.71,941.50 718.70,943.44 716.00,944.58
             708.46,947.74 700.24,951.80 692.00,952.00
             692.77,935.33 695.20,918.66 693.00,902.00
             684.81,902.20 682.32,904.56 675.00,907.32
             675.00,907.32 638.00,922.20 638.00,922.20
             638.00,922.20 573.00,948.55 573.00,948.55
             573.00,948.55 519.00,970.28 519.00,970.28
             519.00,970.28 486.00,983.72 486.00,983.72
             482.23,985.31 476.05,986.94 473.60,990.21
             471.12,993.52 472.19,1000.17 473.06,1004.00
             474.69,1011.24 481.96,1012.17 488.00,1014.42
             488.00,1014.42 532.00,1029.95 532.00,1029.95
             532.00,1029.95 600.00,1053.69 600.00,1053.69
             600.00,1053.69 671.00,1078.67 671.00,1078.67
             671.00,1078.67 709.00,1092.00 709.00,1092.00
             717.07,1094.75 722.22,1097.80 731.00,1098.00
             729.13,1091.44 725.22,1086.08 722.26,1080.00
             717.78,1070.82 712.45,1054.21 713.18,1044.00
             713.47,1039.92 714.55,1033.76 716.09,1030.00
             725.23,1007.74 752.28,1013.15 770.00,1019.34
             774.71,1020.99 789.65,1027.81 792.57,1031.21
             795.31,1034.40 794.79,1037.19 795.08,1041.00
             796.20,1051.24 796.36,1053.67 795.08,1064.00
             790.61,1061.18 789.60,1055.38 787.13,1051.00
             783.50,1044.57 777.84,1038.02 772.00,1033.53
             761.12,1025.15 740.38,1019.20 734.80,1037.00
             732.14,1045.50 735.40,1054.48 739.26,1062.00
             746.85,1076.79 764.67,1094.74 775.72,1108.00
             791.24,1126.64 808.88,1152.81 809.00,1178.00
             809.00,1178.00 809.00,1185.00 809.00,1185.00
             808.97,1206.10 798.12,1217.24 777.00,1217.00
             762.58,1216.83 742.81,1207.30 731.00,1199.33
             722.24,1193.41 717.14,1188.99 717.00,1178.00
             717.00,1178.00 717.00,1150.00 717.00,1150.00
             721.01,1152.60 720.65,1155.63 721.91,1160.00
             723.23,1164.59 725.12,1168.75 727.25,1173.00
             733.66,1185.79 746.09,1197.94 760.00,1202.23
             775.74,1207.08 786.62,1198.39 785.96,1182.00
             785.41,1168.44 777.25,1154.59 769.37,1144.00
             766.49,1140.12 761.81,1133.79 757.91,1131.13
             757.91,1131.13 721.00,1117.05 721.00,1117.05
             721.00,1117.05 562.00,1059.57 562.00,1059.57
             562.00,1059.57 501.00,1037.31 501.00,1037.31
             501.00,1037.31 474.00,1027.78 474.00,1027.78
             466.77,1026.26 463.78,1033.30 459.70,1038.00
             456.57,1041.61 453.07,1044.58 449.00,1047.08
             445.68,1049.11 442.12,1050.37 440.17,1054.04
             438.79,1056.65 439.00,1060.11 439.00,1063.00
             439.00,1063.00 439.00,1370.00 439.00,1370.00
             439.00,1370.00 404.00,1370.00 404.00,1370.00
             404.00,1370.00 404.00,1063.00 404.00,1063.00
             404.00,1060.11 404.21,1056.65 402.83,1054.04
             400.04,1048.79 393.15,1048.07 385.04,1039.96
             379.47,1034.39 378.37,1029.60 373.00,1029.98
             369.60,1030.23 360.62,1034.36 357.00,1035.80
             357.00,1035.80 324.00,1049.14 324.00,1049.14
             324.00,1049.14 226.00,1088.72 226.00,1088.72
             226.00,1088.72 193.00,1102.00 193.00,1102.00
             188.48,1103.81 180.70,1106.47 177.65,1110.21
             174.62,1113.93 173.53,1122.22 172.27,1127.00
             172.27,1127.00 161.73,1171.00 161.73,1171.00
             161.73,1171.00 157.87,1185.98 157.87,1185.98
             157.16,1187.58 156.05,1189.70 154.00,1189.66
             149.84,1189.59 146.18,1176.47 144.72,1173.00
             144.72,1173.00 121.86,1116.00 121.86,1116.00
             121.86,1116.00 115.10,1099.01 115.10,1099.01
             114.22,1097.32 112.61,1094.35 110.23,1095.20
             108.15,1095.94 106.97,1100.08 106.34,1102.00
             106.34,1102.00 101.12,1121.00 101.12,1121.00
             101.12,1121.00 78.86,1198.00 78.86,1198.00
             78.86,1198.00 71.19,1222.00 71.19,1222.00
             70.31,1224.23 68.95,1228.37 66.00,1228.37
             62.51,1228.37 60.90,1222.63 60.00,1220.00
             60.00,1220.00 51.00,1192.00 51.00,1192.00
             51.00,1192.00 25.00,1112.00 25.00,1112.00
             22.61,1104.83 18.80,1089.41 14.45,1084.10
             12.49,1081.72 10.54,1080.60 8.00,1079.00
             8.00,1079.00 8.00,1077.00 8.00,1077.00
             8.00,1077.00 28.00,1069.48 28.00,1069.48
             28.00,1069.48 46.00,1064.00 46.00,1064.00
             46.00,1064.00 44.08,1074.00 44.08,1074.00
             44.08,1074.00 51.85,1107.00 51.85,1107.00
             51.85,1107.00 68.42,1165.00 68.42,1165.00
             68.42,1165.00 72.00,1176.00 72.00,1176.00
             73.97,1175.00 74.78,1174.81 76.15,1172.86
             77.89,1170.40 82.31,1153.09 83.37,1149.00
             83.37,1149.00 104.15,1074.00 104.15,1074.00
             104.15,1074.00 111.16,1049.00 111.16,1049.00
             111.80,1046.75 113.08,1042.20 116.06,1042.20
             119.31,1042.20 121.22,1047.55 122.28,1050.00
             122.28,1050.00 132.00,1075.00 132.00,1075.00
             132.00,1075.00 141.80,1100.00 141.80,1100.00
             141.80,1100.00 157.00,1139.00 157.00,1139.00
             157.00,1139.00 160.86,1135.86 160.86,1135.86
             160.86,1135.86 167.37,1109.00 167.37,1109.00
             167.37,1109.00 179.42,1054.00 179.42,1054.00
             179.42,1054.00 184.85,1026.00 184.85,1026.00
             184.85,1026.00 181.00,1015.00 181.00,1015.00
             181.00,1015.00 203.00,1008.00 203.00,1008.00
             202.39,1013.80 199.14,1020.01 197.43,1026.00
             197.43,1026.00 187.37,1065.00 187.37,1065.00
             186.50,1068.52 182.32,1081.91 184.69,1084.36
             187.11,1086.87 193.28,1083.70 196.00,1082.68
             196.00,1082.68 228.00,1070.05 228.00,1070.05
             228.00,1070.05 338.00,1026.68 338.00,1026.68
             338.00,1026.68 358.00,1018.81 358.00,1018.81
             361.90,1017.32 365.81,1016.28 368.57,1012.89
             370.92,1010.01 370.95,1007.51 371.00,1004.00
             371.05,1000.43 371.58,994.08 369.40,991.22
             366.80,987.80 358.14,985.46 354.00,983.95
             354.00,983.95 315.00,969.69 315.00,969.69
             315.00,969.69 177.00,919.95 177.00,919.95
             177.00,919.95 147.00,908.81 147.00,908.81
             144.00,907.67 138.30,905.15 135.31,907.04
             132.33,908.92 132.97,914.87 133.00,918.00
             133.00,918.00 134.00,933.00 134.00,933.00
             134.01,940.76 134.37,948.33 133.00,956.00
             125.63,952.31 120.46,937.46 116.75,930.00
             116.75,930.00 91.25,879.00 91.25,879.00
             87.33,871.17 83.68,860.26 77.00,855.00
             77.00,855.00 78.00,888.00 78.00,888.00
             78.00,888.00 79.00,915.00 79.00,915.00
             79.00,915.00 81.00,937.00 81.00,937.00
             81.00,937.00 77.00,936.47 77.00,936.47
             68.00,934.20 72.92,926.62 73.00,920.00
             73.00,920.00 72.00,895.00 72.00,895.00
             72.00,895.00 72.00,864.00 72.00,864.00
             72.00,864.00 71.00,849.00 71.00,849.00
             70.90,840.00 70.43,829.78 72.00,821.00
             79.13,824.71 84.57,839.65 88.25,847.00
             88.25,847.00 97.27,866.00 97.27,866.00
             97.27,866.00 109.58,890.00 109.58,890.00
             113.33,898.60 119.87,914.38 126.97,920.00
             129.00,911.76 127.04,907.96 126.97,900.00
             126.97,900.00 126.97,887.00 126.97,887.00
             126.97,887.00 126.00,875.00 126.00,875.00
             125.98,863.63 124.86,844.79 122.00,834.00
             126.76,832.87 134.17,833.31 133.20,840.02
             133.20,840.02 132.09,845.00 132.09,845.00
             132.09,845.00 132.09,878.00 132.09,878.00
             132.01,882.44 131.64,886.28 135.23,889.58
             137.85,892.00 150.01,895.99 154.00,897.33
             154.00,897.33 190.00,910.00 190.00,910.00
             190.00,910.00 320.00,955.34 320.00,955.34
             320.00,955.34 360.00,969.51 360.00,969.51
             360.00,969.51 373.00,974.03 373.00,974.03
             379.43,975.32 382.74,970.01 387.00,966.09
             391.59,961.88 400.50,957.50 402.83,952.98
             404.21,950.30 404.00,946.95 404.00,944.00
             404.00,944.00 404.00,820.00 404.00,820.00
             404.00,817.63 404.13,814.20 403.26,812.02
             400.88,806.04 391.69,805.65 386.00,803.66
             381.72,802.16 373.97,798.88 375.66,793.00
             378.53,782.98 397.96,784.48 402.26,778.77
             403.98,776.49 403.96,773.72 404.00,771.00
             404.00,771.00 404.00,745.00 404.00,745.00
             403.99,740.24 404.37,735.88 399.89,732.85
             397.66,731.35 392.83,730.54 390.00,729.65
             384.00,727.77 378.34,725.26 373.00,721.94
             368.36,719.05 364.82,716.11 361.18,712.00
             358.96,709.49 356.53,705.50 353.91,703.74
             349.86,701.02 346.37,702.90 342.21,700.55
             337.44,697.86 339.45,695.13 330.00,695.00
             322.42,694.90 313.27,696.55 319.00,686.00
             314.36,684.89 307.71,682.15 315.00,678.00
             315.00,678.00 315.00,675.00 315.00,675.00
             315.00,675.00 310.00,673.00 310.00,673.00
             312.64,667.87 318.84,664.67 317.17,659.00
             316.36,656.26 304.36,643.58 301.42,640.00
             291.31,627.65 282.07,614.36 273.34,601.00
             269.83,595.62 264.75,585.31 258.99,582.65
             258.99,582.65 236.00,578.60 236.00,578.60
             222.82,575.96 209.46,571.29 198.00,564.19
             187.87,557.91 177.07,547.48 171.31,537.00
             169.14,533.05 165.43,521.65 160.96,520.99
             155.85,520.24 152.58,527.77 145.00,530.00
             145.01,521.49 145.37,519.01 148.60,511.00
             151.08,504.87 154.30,500.62 155.00,494.00
             155.00,494.00 137.00,511.00 137.00,511.00
             134.76,497.83 140.86,482.00 146.00,470.00
             148.26,464.74 150.93,460.69 152.00,455.00
             138.36,460.35 139.07,473.21 130.00,478.00
             130.00,464.20 132.59,452.93 137.42,440.00
             140.00,433.11 146.35,419.25 147.00,413.00
             133.90,422.92 134.78,430.77 127.00,437.00
             124.48,422.86 130.82,401.35 137.87,389.00
             137.87,389.00 150.00,371.00 150.00,371.00
             134.88,367.66 116.32,385.03 107.00,388.00
             107.34,372.98 120.75,357.53 132.00,348.67
             132.00,348.67 145.00,339.81 145.00,339.81
             146.56,338.82 150.03,336.92 150.38,334.96
             150.88,332.16 145.87,331.39 144.00,331.17
             136.68,330.34 129.12,331.18 122.00,332.88
             122.00,332.88 104.00,338.00 104.00,338.00
             102.62,329.93 112.22,321.62 118.00,317.00
             128.09,308.95 139.68,302.93 152.00,299.03
             152.00,299.03 177.00,292.00 177.00,292.00
             172.80,286.46 169.60,285.22 163.00,283.65
             143.53,279.02 135.57,285.19 118.00,286.00
             120.27,278.64 131.29,274.04 138.00,271.15
             150.03,265.97 162.80,262.15 176.00,262.00
             176.00,262.00 205.00,265.00 205.00,265.00
             199.03,244.13 168.24,229.14 149.00,222.67
             142.24,220.39 127.46,217.54 123.00,213.00
             133.37,207.26 147.29,205.48 159.00,204.96
             159.00,204.96 168.00,204.08 168.00,204.08
             168.00,204.08 176.00,204.91 176.00,204.91
             189.81,205.86 201.35,208.32 214.00,214.32
             229.39,221.61 235.07,229.29 244.00,234.00
             245.28,227.47 243.13,222.78 240.24,217.00
             234.17,204.85 224.56,194.43 214.00,186.00
             201.32,175.89 179.72,162.50 164.00,158.48
             139.48,152.20 115.05,157.88 93.00,169.26
             84.18,173.81 74.86,179.84 67.00,185.89
             61.59,190.05 56.52,195.78 50.00,198.00 Z" />
</svg>